<svg width="32" height="32" viewBox="0 0 32 32" fill="none" xmlns="http://www.w3.org/2000/svg">
<path d="M24 14.6666C24 15.56 24 16.44 24 17.3333C25.6 17.3333 27.68 17.3333 29.3333 17.3333C29.3333 16.44 29.3333 15.56 29.3333 14.6666C27.68 14.6666 25.6 14.6666 24 14.6666Z" fill="#FFB34D"/>
<path d="M21.3334 23.48C22.6134 24.4267 24.28 25.68 25.6 26.6667C26.1334 25.96 26.6667 25.24 27.2 24.5334C25.88 23.5467 24.2134 22.2934 22.9334 21.3334C22.4 22.0534 21.8667 22.7734 21.3334 23.48Z" fill="#FFB34D"/>
<path d="M27.2 7.46665C26.6667 6.75998 26.1334 6.03998 25.6 5.33331C24.28 6.31998 22.6134 7.57331 21.3334 8.53331C21.8667 9.23998 22.4 9.95998 22.9334 10.6666C24.2134 9.70665 25.88 8.46665 27.2 7.46665Z" fill="#FFB34D"/>
<path d="M5.33329 12C3.86663 12 2.66663 13.2 2.66663 14.6667V17.3333C2.66663 18.8 3.86663 20 5.33329 20H6.66663V25.3333H9.33329V20H10.6666L17.3333 24V8L10.6666 12H5.33329ZM12.04 14.28L14.6666 12.7067V19.2933L12.04 17.72L11.4 17.3333H10.6666H5.33329V14.6667H10.6666H11.4L12.04 14.28Z" fill="#FFB34D"/>
<path d="M20.6666 16C20.6666 14.2267 19.8933 12.6267 18.6666 11.5333V20.4533C19.8933 19.3733 20.6666 17.7733 20.6666 16Z" fill="#FFB34D"/>
</svg>
