<svg width="32" height="32" viewBox="0 0 32 32" fill="none" xmlns="http://www.w3.org/2000/svg">
<g clip-path="url(#clip0)">
<path d="M16.5504 1.10085C14.0784 1.10085 11.6414 1.69644 9.45742 2.82834L6.90373 0.274528C6.67787 0.0485465 6.35245 -0.0469525 6.0403 0.0210107C5.72814 0.088974 5.47193 0.311075 5.36035 0.610464L4.0708 4.07052L0.610805 5.36001C0.311416 5.47159 0.0893155 5.7278 0.0213522 6.03995C-0.0465485 6.35211 0.048888 6.67747 0.274869 6.90339L2.82862 9.4572C1.69672 11.6412 1.10113 14.0781 1.10113 16.5502C1.10113 25.069 8.03163 31.9995 16.5504 31.9995C25.0693 31.9995 31.9999 25.069 31.9999 16.5502C31.9999 8.03135 25.0693 1.10085 16.5504 1.10085ZM16.5504 21.6348C19.3542 21.6348 21.6351 19.3539 21.6351 16.5502C21.6351 13.7465 19.3542 11.4656 16.5504 11.4656C15.4871 11.4656 14.4993 11.7942 13.6823 12.3545L11.322 9.99415C12.757 8.84741 14.5749 8.16058 16.5504 8.16058C21.1765 8.16058 24.94 11.9242 24.94 16.5502C24.94 21.1762 21.1765 24.9398 16.5504 24.9398C11.9244 24.9398 8.16092 21.1762 8.16092 16.5502C8.16092 14.5747 8.84769 12.7567 9.99443 11.3217L12.3548 13.6821C11.7945 14.4991 11.4658 15.4868 11.4658 16.5502C11.4658 19.3538 13.7468 21.6348 16.5504 21.6348ZM17.2142 15.8864L15.0464 13.7186C15.4953 13.4792 16.0072 13.3429 16.5504 13.3429C18.3189 13.3429 19.7577 14.7817 19.7577 16.5501C19.7577 18.3185 18.3189 19.7573 16.5504 19.7573C14.782 19.7573 13.3433 18.3185 13.3433 16.5501C13.3433 16.0068 13.4795 15.495 13.7189 15.0461L15.8867 17.2139C16.07 17.3972 16.3103 17.4888 16.5504 17.4888C16.7907 17.4888 17.0309 17.3971 17.2142 17.2139C17.5808 16.8474 17.5808 16.253 17.2142 15.8864ZM6.60935 2.63522L9.7682 5.79413L9.36211 8.03423L5.89085 4.56304L6.60935 2.63522ZM2.63556 6.609L4.56338 5.89057L8.03464 9.36177L5.79448 9.76792L2.63556 6.609ZM16.5504 30.1221C9.06691 30.1221 2.97857 24.0338 2.97857 16.5502C2.97857 14.5802 3.40925 12.6359 4.23151 10.86L4.81445 11.443C4.99206 11.6206 5.23149 11.718 5.47819 11.718C5.53382 11.718 5.58984 11.713 5.64566 11.7029L7.71428 11.3279C6.80598 12.859 6.28355 14.6446 6.28355 16.5502C6.28355 22.2114 10.8893 26.8172 16.5505 26.8172C22.2117 26.8172 26.8175 22.2114 26.8175 16.5502C26.8175 10.8889 22.2117 6.28314 16.5505 6.28314C14.6449 6.28314 12.8593 6.80564 11.3283 7.71394L11.7033 5.64532C11.7582 5.34242 11.661 5.03177 11.4434 4.81411L10.8604 4.23117C12.6362 3.40891 14.5805 2.97823 16.5506 2.97823C24.0342 2.97823 30.1225 9.06657 30.1225 16.5501C30.1224 24.0338 24.034 30.1221 16.5504 30.1221Z" fill="#FFB34D"/>
</g>
<defs>
<clipPath id="clip0">
<rect width="32" height="32" fill="white"/>
</clipPath>
</defs>
</svg>
