<svg width="32" height="32" viewBox="0 0 32 32" fill="none" xmlns="http://www.w3.org/2000/svg">
<path d="M28.1875 23.6562C28.7052 23.6562 29.125 23.2365 29.125 22.7188V18.0312C29.125 15.8347 27.8592 13.9285 26.019 13.0028C26.3996 12.4851 26.625 11.8466 26.625 11.1562C26.625 9.43313 25.2231 8.03125 23.5 8.03125C21.7769 8.03125 20.375 9.43313 20.375 11.1562C20.375 11.8459 20.6 12.4837 20.9797 13.0011C20.7319 13.1256 20.4931 13.2688 20.2647 13.4301C19.8069 12.8979 19.2513 12.4523 18.6262 12.1208C19.1319 11.5221 19.4375 10.7494 19.4375 9.90625C19.4375 8.01081 17.8954 6.46875 16 6.46875C14.1046 6.46875 12.5625 8.01081 12.5625 9.90625C12.5625 10.7494 12.8681 11.5221 13.3737 12.1208C12.7487 12.4523 12.1932 12.8978 11.7354 13.4299C11.5069 13.2687 11.2677 13.126 11.0199 13.0016C11.3999 12.4841 11.6249 11.8461 11.6249 11.1562C11.6249 9.43313 10.2231 8.03125 8.49994 8.03125C6.77681 8.03125 5.37494 9.43313 5.37494 11.1562C5.37494 11.8466 5.60037 12.4851 5.98094 13.0028C4.14075 13.9285 2.875 15.8347 2.875 18.0312V22.7188C2.875 23.2365 3.29475 23.6562 3.8125 23.6562H10.375V24.5938C10.375 25.1115 10.7948 25.5312 11.3125 25.5312H20.6875C21.2052 25.5312 21.625 25.1115 21.625 24.5938V23.6562H28.1875ZM22.25 11.1562C22.25 10.467 22.8107 9.90625 23.5 9.90625C24.1893 9.90625 24.75 10.467 24.75 11.1562C24.75 11.8455 24.1893 12.4062 23.5 12.4062C22.8107 12.4062 22.25 11.8455 22.25 11.1562ZM23.5 14.2812C25.5677 14.2812 27.25 15.9635 27.25 18.0312V21.7812H21.625V17.0938C21.625 16.3698 21.4874 15.6773 21.2372 15.0411C21.8853 14.5485 22.6719 14.2812 23.5 14.2812ZM14.4375 9.90625C14.4375 9.04469 15.1384 8.34375 16 8.34375C16.8616 8.34375 17.5625 9.04469 17.5625 9.90625C17.5625 10.7678 16.8616 11.4688 16 11.4688C15.1384 11.4688 14.4375 10.7678 14.4375 9.90625ZM7.25 11.1562C7.25 10.467 7.81075 9.90625 8.5 9.90625C9.18925 9.90625 9.75 10.467 9.75 11.1562C9.75 11.8455 9.18925 12.4062 8.5 12.4062C7.81075 12.4062 7.25 11.8455 7.25 11.1562ZM4.75 21.7812V18.0312C4.75 15.9635 6.43225 14.2812 8.5 14.2812C9.32575 14.2812 10.114 14.5492 10.7626 15.0416C10.5125 15.6777 10.375 16.3699 10.375 17.0938V21.7812H4.75ZM19.75 23.6562H12.25V17.0938C12.25 15.026 13.9323 13.3438 16 13.3438C18.0677 13.3438 19.75 15.026 19.75 17.0938V23.6562Z" fill="#FFB34D"/>
<path d="M31.0625 23.1875C30.5448 23.1875 30.125 23.6072 30.125 24.125V28.875H25.375C24.8572 28.875 24.4375 29.2948 24.4375 29.8125C24.4375 30.3302 24.8572 30.75 25.375 30.75H31.0625C31.5802 30.75 32 30.3302 32 29.8125V24.125C32 23.6072 31.5802 23.1875 31.0625 23.1875Z" fill="#FFB34D"/>
<path d="M6.625 28.875H1.875V24.125C1.875 23.6072 1.45525 23.1875 0.9375 23.1875C0.41975 23.1875 0 23.6072 0 24.125V29.8125C0 30.3302 0.41975 30.75 0.9375 30.75H6.625C7.14275 30.75 7.5625 30.3302 7.5625 29.8125C7.5625 29.2948 7.14275 28.875 6.625 28.875Z" fill="#FFB34D"/>
<path d="M0.9375 8.8125C1.45525 8.8125 1.875 8.39275 1.875 7.875V3.125H6.625C7.14275 3.125 7.5625 2.70525 7.5625 2.1875C7.5625 1.66975 7.14275 1.25 6.625 1.25H0.9375C0.41975 1.25 0 1.66975 0 2.1875V7.875C0 8.39275 0.41975 8.8125 0.9375 8.8125Z" fill="#FFB34D"/>
<path d="M31.0625 1.25H25.3125C24.7947 1.25 24.375 1.66975 24.375 2.1875C24.375 2.70525 24.7947 3.125 25.3125 3.125H30.125V7.875C30.125 8.39275 30.5448 8.8125 31.0625 8.8125C31.5802 8.8125 32 8.39275 32 7.875V2.1875C32 1.66975 31.5802 1.25 31.0625 1.25Z" fill="#FFB34D"/>
</svg>
