<svg width="32" height="32" viewBox="0 0 32 32" fill="none" xmlns="http://www.w3.org/2000/svg">
<path d="M29.1875 1.9375H2.8125C1.26172 1.9375 0 3.19922 0 4.75V27.25C0 28.8008 1.26172 30.0625 2.8125 30.0625H29.1875C30.7383 30.0625 32 28.8008 32 27.25V4.75C32 3.19922 30.7383 1.9375 29.1875 1.9375ZM15.0625 26.3125V28.1875H9.4375V26.3125H15.0625ZM16.9375 26.3125H22.5625V28.1875H16.9375V26.3125ZM1.875 24.4375V7.5625H30.125V24.4375H1.875ZM16.9375 5.6875V3.8125H22.5625V5.6875H16.9375ZM15.0625 5.6875H9.4375V3.8125H15.0625V5.6875ZM30.125 4.75V5.6875H24.4375V3.8125H29.1875C29.7043 3.8125 30.125 4.23315 30.125 4.75ZM2.8125 3.8125H7.5625V5.6875H1.875V4.75C1.875 4.23315 2.29565 3.8125 2.8125 3.8125ZM1.875 27.25V26.3125H7.5625V28.1875H2.8125C2.29565 28.1875 1.875 27.7668 1.875 27.25ZM29.1875 28.1875H24.4375V26.3125H30.125V27.25C30.125 27.7668 29.7043 28.1875 29.1875 28.1875Z" fill="#F79E29"/>
<path d="M20.3125 15.25L12.8125 9.62495C12.1938 9.16108 11.3125 9.6064 11.3125 10.375V21.625C11.3125 21.9802 11.5132 22.3046 11.8308 22.4636C12.1477 22.622 12.5281 22.5883 12.8125 22.375L20.3125 16.75C20.5486 16.573 20.6875 16.2951 20.6875 16C20.6875 15.7048 20.5486 15.427 20.3125 15.25ZM13.1875 19.75V12.25L18.1875 16L13.1875 19.75Z" fill="#F79E29"/>
</svg>
