<svg width="32" height="32" viewBox="0 0 32 32" fill="none" xmlns="http://www.w3.org/2000/svg">
<g clip-path="url(#clip0)">
<path d="M25.3333 5.33334V16H20V5.33334H12C13.7675 5.33533 15.462 6.03834 16.7119 7.28816C17.9617 8.53797 18.6647 10.2325 18.6667 12V21.3333C18.6667 21.687 18.5262 22.0261 18.2761 22.2761C18.0261 22.5262 17.687 22.6667 17.3333 22.6667H30.6667C31.0203 22.6667 31.3594 22.5262 31.6095 22.2761C31.8595 22.0261 32 21.687 32 21.3333V12C31.998 10.2325 31.295 8.53797 30.0452 7.28816C28.7954 6.03834 27.1008 5.33533 25.3333 5.33334Z" fill="#FFB34D"/>
<path d="M23.9999 2.66667H26.6666V0H22.6666C22.313 0 21.9738 0.140476 21.7238 0.390524C21.4737 0.640573 21.3333 0.979712 21.3333 1.33333V14.6667H23.9999V2.66667Z" fill="#FFB34D"/>
<path d="M17.3333 12C17.3333 10.2319 16.631 8.5362 15.3807 7.28596C14.1305 6.03572 12.4348 5.33334 10.6667 5.33334C8.89856 5.33334 7.20286 6.03572 5.95262 7.28596C4.70238 8.5362 4 10.2319 4 12V18.6667H17.3333V12Z" fill="#FFB34D"/>
<path d="M17.3333 20H0V22.6667H16C16.3536 22.6667 16.6928 22.5262 16.9428 22.2762C17.1929 22.0261 17.3333 21.687 17.3333 21.3333V20Z" fill="#FFB34D"/>
<path d="M18.6667 24H25.3334V32H18.6667V24Z" fill="#FFB34D"/>
</g>
<defs>
<clipPath id="clip0">
<rect width="32" height="32" fill="white"/>
</clipPath>
</defs>
</svg>
