<svg width="32" height="32" viewBox="0 0 32 32" fill="none" xmlns="http://www.w3.org/2000/svg">
<g clip-path="url(#clip0)">
<path d="M16 12.9144C19.003 12.9144 21.4375 10.48 21.4375 7.47693C21.4375 4.47388 19.003 2.03943 16 2.03943C12.997 2.03943 10.5625 4.47388 10.5625 7.47693C10.5625 10.48 12.997 12.9144 16 12.9144Z" fill="#FFB34D"/>
<path d="M27 12.9144C28.8985 12.9144 30.4375 11.3753 30.4375 9.47687C30.4375 7.57839 28.8985 6.03937 27 6.03937C25.1015 6.03937 23.5625 7.57839 23.5625 9.47687C23.5625 11.3753 25.1015 12.9144 27 12.9144Z" fill="#FFB34D"/>
<path d="M5 12.9144C6.89848 12.9144 8.4375 11.3753 8.4375 9.47687C8.4375 7.57839 6.89848 6.03937 5 6.03937C3.10152 6.03937 1.5625 7.57839 1.5625 9.47687C1.5625 11.3753 3.10152 12.9144 5 12.9144Z" fill="#FFB34D"/>
<path d="M8.38688 16.0013C7.03375 14.8927 5.80831 15.0394 4.24375 15.0394C1.90375 15.0394 0 16.9319 0 19.2576V26.0832C0 27.0932 0.824375 27.9144 1.83812 27.9144C6.21475 27.9144 5.6875 27.9936 5.6875 27.7257C5.6875 22.8891 5.11462 19.3421 8.38688 16.0013Z" fill="#FFB34D"/>
<path d="M17.4882 15.0643C14.7554 14.8364 12.3801 15.067 10.3313 16.7581C6.90275 19.5043 7.56256 23.202 7.56256 27.7256C7.56256 28.9224 8.53631 29.9143 9.75131 29.9143C22.9439 29.9143 23.469 30.3399 24.2513 28.6075C24.5079 28.0216 24.4376 28.2078 24.4376 22.6031C24.4376 18.1515 20.583 15.0643 17.4882 15.0643Z" fill="#FFB34D"/>
<path d="M27.7563 15.0394C26.1832 15.0394 24.9645 14.8942 23.6132 16.0013C26.861 19.3173 26.3125 22.6222 26.3125 27.7257C26.3125 27.9953 25.8748 27.9144 30.0963 27.9144C31.1463 27.9144 32 27.0638 32 26.0182V19.2575C32 16.9319 30.0963 15.0394 27.7563 15.0394Z" fill="#FFB34D"/>
</g>
<defs>
<clipPath id="clip0">
<rect width="32" height="32" fill="white"/>
</clipPath>
</defs>
</svg>
