<svg width="48" height="48" viewBox="0 0 48 48" fill="none" xmlns="http://www.w3.org/2000/svg">
<g clip-path="url(#clip0)">
<path d="M23.9952 47.9999C28.7433 48.0018 33.3853 46.5956 37.3342 43.9591C41.283 41.3226 44.3613 37.5742 46.1796 33.188C47.998 28.8019 48.4747 23.975 47.5496 19.3179C46.6245 14.6608 44.339 10.3826 40.9822 7.02452C37.6255 3.66642 33.3483 1.37922 28.6915 0.4522C24.0348 -0.474817 19.2077 -6.19702e-06 14.8208 1.81658C10.4339 3.63316 6.68433 6.70992 4.04622 10.6577C1.4081 14.6055 3.8569e-07 19.247 0 23.9951C-5.17013e-07 30.3599 2.52775 36.4641 7.02743 40.9656C11.5271 45.4672 17.6304 47.9974 23.9952 47.9999Z" fill="#F99F27"/>
<path d="M23.3275 12.1139L21.8085 14.2135L23.3275 12.1139ZM20.7345 12.7815L19.7669 14.0006L20.7345 12.7815ZM21.615 11.6108L21.6924 11.514L21.615 11.6108ZM21.8859 18.074C22.6869 18.901 23.1935 19.9686 23.3275 21.1121V37.7345C23.3272 37.893 23.2706 38.0461 23.1678 38.1666C23.065 38.2872 22.9227 38.3672 22.7663 38.3925L22.2245 38.4796C22.1029 38.4902 21.9804 38.4757 21.8646 38.437C21.7488 38.3982 21.6422 38.3361 21.5515 38.2544C21.4607 38.1728 21.3878 38.0733 21.3371 37.9622C21.2864 37.8511 21.2592 37.7308 21.257 37.6088V21.4991C21.1249 20.3694 20.6291 19.3133 19.8443 18.49V18.49L21.8859 18.074ZM17.1159 38.5376C17.1156 38.6956 17.1564 38.851 17.2345 38.9885C17.3125 39.1259 17.425 39.2406 17.5609 39.3213L17.8512 39.4955L21.644 41.7886C22.2632 42.1587 22.9998 42.2797 23.7049 42.1272L33.0707 40.1244L33.3223 40.0663C33.4785 40.0331 33.6203 39.9517 33.7279 39.8337C33.8355 39.7157 33.9034 39.567 33.9222 39.4084C33.9222 39.4084 33.9222 39.3503 33.9222 39.3213L17.1159 38.5376ZM33.9318 37.6765V39.3213V37.6765ZM17.1159 36.8928V38.5376V36.8928ZM21.2086 35.4318L17.8802 35.9833C17.6968 36.0198 17.5279 36.1087 17.394 36.2392C17.2601 36.3697 17.1668 36.5362 17.1255 36.7186C17.1207 36.7766 17.1207 36.8348 17.1255 36.8928C17.1252 37.0508 17.1661 37.2062 17.2442 37.3436C17.3222 37.4811 17.4347 37.5958 17.5706 37.6765L17.8609 37.8506L21.6537 40.1341C22.2701 40.5112 23.0084 40.636 23.7145 40.4824L33.0804 38.4796L33.3319 38.4215C33.4881 38.3882 33.63 38.3069 33.7376 38.1889C33.8452 38.0709 33.9131 37.9222 33.9318 37.7636C33.9318 37.7636 33.9318 37.7055 33.9318 37.6765C33.9301 37.5329 33.8885 37.3925 33.8116 37.2712C33.7347 37.1499 33.6256 37.0524 33.4964 36.9895L28.7845 34.7158C28.2411 34.463 27.6346 34.3787 27.0429 34.4739L23.3275 35.0835L21.2086 35.4318ZM16.0419 10.5658L26.2592 9.5112L29.307 14.9295L19.138 16.7678L16.0419 10.5658ZM31.3872 14.9391C31.4629 15.0892 31.5023 15.2549 31.5023 15.4229C31.5023 15.591 31.4629 15.7567 31.3872 15.9067C31.3161 16.0635 31.2073 16.2003 31.0706 16.305C30.9339 16.4096 30.7734 16.4789 30.6035 16.5066L19.1574 18.6061C18.8608 18.6582 18.5554 18.6129 18.2868 18.4768C18.0181 18.3408 17.8008 18.1214 17.6674 17.8515L14.0197 10.5658C13.936 10.3924 13.8956 10.2011 13.902 10.0086C13.9085 9.81611 13.9616 9.62803 14.0567 9.46055C14.1519 9.29307 14.2863 9.15119 14.4484 9.04709C14.6104 8.943 14.7954 8.87981 14.9873 8.86295L25.3013 7.78897C25.879 7.735 26.46 7.84866 26.9748 8.11634C27.4896 8.38403 27.9164 8.79441 28.2039 9.29834L31.3872 14.9391Z" stroke="white" stroke-width="0.9" stroke-linecap="round" stroke-linejoin="round"/>
</g>
<defs>
<clipPath id="clip0">
<rect width="48" height="48" fill="white"/>
</clipPath>
</defs>
</svg>
