<svg width="48" height="48" viewBox="0 0 48 48" fill="none" xmlns="http://www.w3.org/2000/svg">
<g clip-path="url(#clip0)">
<path d="M23.9952 47.9999C28.7433 48.0018 33.3853 46.5956 37.3342 43.9591C41.283 41.3226 44.3613 37.5742 46.1796 33.188C47.998 28.8019 48.4747 23.975 47.5496 19.3179C46.6245 14.6608 44.339 10.3826 40.9822 7.02452C37.6255 3.66642 33.3483 1.37922 28.6915 0.4522C24.0348 -0.474817 19.2077 -6.19702e-06 14.8208 1.81658C10.4339 3.63316 6.68433 6.70992 4.04622 10.6577C1.4081 14.6055 3.8569e-07 19.247 0 23.9951C-5.17013e-07 30.3599 2.52775 36.4641 7.02743 40.9656C11.5271 45.4672 17.6304 47.9974 23.9952 47.9999Z" fill="#F99F27"/>
<path d="M11.0978 29.3167V12.1911L13.2264 13.7682V19.6412M29.1232 14.9099V24.2854V14.9099ZM37.1054 26.4044L29.1232 14.9099L30.6616 14.4552L38.9438 25.8529L39.0212 25.9593L37.1054 26.4044ZM23.1147 30.6906L14.7551 19.1865L13.2167 19.6412L21.286 31.2518L23.1147 30.6906ZM30.5455 14.5132V9.2304V14.5132ZM30.5455 9.2304L13.2167 13.7682L11.0978 12.1911L27.4106 8.43701L30.5455 9.2304ZM22.1278 29.3263L29.1232 27.2171L36.2056 25.0691L22.1278 29.3263ZM21.286 39.5533L38.9922 33.6803V25.8335L21.286 31.2518V39.5533ZM21.286 31.2518V39.5533L11.0978 29.3263V23.6178L21.286 31.2518ZM11.0978 29.3263V12.1911L13.2264 13.7682V19.6412L11.0978 29.3263Z" stroke="white" stroke-linecap="round" stroke-linejoin="round"/>
</g>
<defs>
<clipPath id="clip0">
<rect width="48" height="48" fill="white"/>
</clipPath>
</defs>
</svg>
