<svg width="48" height="48" viewBox="0 0 48 48" fill="none" xmlns="http://www.w3.org/2000/svg">
<g clip-path="url(#clip0)">
<path d="M23.9952 47.9999C28.7433 48.0018 33.3853 46.5956 37.3342 43.9591C41.283 41.3226 44.3613 37.5742 46.1796 33.188C47.998 28.8019 48.4747 23.975 47.5496 19.3179C46.6245 14.6608 44.339 10.3826 40.9822 7.02452C37.6255 3.66642 33.3483 1.37922 28.6915 0.4522C24.0348 -0.474817 19.2077 -6.19702e-06 14.8208 1.81658C10.4339 3.63316 6.68433 6.70992 4.04622 10.6577C1.4081 14.6055 3.8569e-07 19.247 0 23.9951C-5.17013e-07 30.3599 2.52775 36.4641 7.02743 40.9656C11.5271 45.4672 17.6304 47.9974 23.9952 47.9999Z" fill="#F99F27"/>
<path d="M38.5665 33.6031V16.8742H21.2861V39.5341H32.6354M9.42396 21.1894L16.4483 28.2041H19.0994L9.42396 21.1894ZM9.42396 18.5287L16.4483 25.5047H19.0994L9.42396 18.5287ZM9.42396 15.8292L16.4483 22.8052H19.0994L9.42396 15.8292ZM9.42396 13.1298L16.4483 20.1058H19.0994L9.42396 13.1298ZM19.0994 17.4063H16.4483L9.38525 10.3916H32.0936L36.4088 14.7069L19.0994 17.4063ZM24.537 36.3025H29.936H24.537ZM24.537 33.0612H29.936H24.537ZM24.537 29.8199H35.3349H24.537ZM24.537 26.5883H35.3349H24.537ZM24.537 23.3471H35.3349H24.537ZM24.537 20.1058H35.3349H24.537ZM32.6354 33.6031H38.5665L32.6354 39.5341V33.6031Z" stroke="white" stroke-width="1.5" stroke-linecap="round" stroke-linejoin="round"/>
</g>
<defs>
<clipPath id="clip0">
<rect width="48" height="48" fill="white"/>
</clipPath>
</defs>
</svg>
