<svg width="48" height="48" viewBox="0 0 48 48" fill="none" xmlns="http://www.w3.org/2000/svg">
<g clip-path="url(#clip0)">
<path d="M23.9952 47.9999C28.7433 48.0018 33.3853 46.5956 37.3342 43.9591C41.283 41.3226 44.3613 37.5742 46.1796 33.188C47.998 28.8019 48.4747 23.975 47.5496 19.3179C46.6245 14.6608 44.339 10.3826 40.9822 7.02452C37.6255 3.66642 33.3483 1.37922 28.6915 0.4522C24.0348 -0.474817 19.2077 -6.19702e-06 14.8208 1.81658C10.4339 3.63316 6.68433 6.70992 4.04622 10.6577C1.4081 14.6055 3.8569e-07 19.247 0 23.9951C-5.17013e-07 30.3599 2.52775 36.4641 7.02743 40.9656C11.5271 45.4672 17.6304 47.9974 23.9952 47.9999Z" fill="#F99F27"/>
<path d="M23.6952 17.6095H33.2449H23.6952ZM23.6952 35.4317H33.2449H23.6952ZM13.5457 9.32731L21.7795 4.83789V9.32731H13.5457ZM28.7845 9.32731L20.512 13.7877L28.7845 9.32731ZM20.512 34.8318H13.5457V9.32731H28.7845V13.7877L20.512 34.8318ZM36.4281 39.2535H20.512V13.7877H36.4281V39.2535Z" stroke="white" stroke-width="1.32" stroke-linecap="round" stroke-linejoin="round"/>
</g>
<defs>
<clipPath id="clip0">
<rect width="48" height="48" fill="white"/>
</clipPath>
</defs>
</svg>
