<svg width="48" height="48" viewBox="0 0 48 48" fill="none" xmlns="http://www.w3.org/2000/svg">
<g clip-path="url(#clip0)">
<path d="M23.9952 47.9999C28.7433 48.0018 33.3853 46.5956 37.3342 43.9591C41.283 41.3226 44.3613 37.5742 46.1796 33.188C47.998 28.8019 48.4747 23.975 47.5496 19.3179C46.6245 14.6608 44.339 10.3826 40.9822 7.02452C37.6255 3.66642 33.3483 1.37922 28.6915 0.4522C24.0348 -0.474817 19.2077 -6.19702e-06 14.8208 1.81658C10.4339 3.63316 6.68433 6.70992 4.04622 10.6577C1.4081 14.6055 3.8569e-07 19.247 0 23.9951C-5.17013e-07 30.3599 2.52775 36.4641 7.02743 40.9656C11.5271 45.4672 17.6304 47.9974 23.9952 47.9999Z" fill="#F99F27"/>
<path d="M36.1476 29.6168H11.8525V15.1036H36.1476V29.6168ZM36.9313 13.5459H11.0591C10.8513 13.5459 10.6519 13.6285 10.5049 13.7754C10.358 13.9224 10.2754 14.1218 10.2754 14.3296V30.4006C10.2754 30.6093 10.3576 30.8097 10.5043 30.9582C10.651 31.1067 10.8504 31.1914 11.0591 31.194H13.5457L12.075 32.7904C11.9339 32.9444 11.8597 33.1481 11.8688 33.3568C11.8778 33.5654 11.9694 33.7619 12.1234 33.9031C12.2774 34.0442 12.4811 34.1184 12.6898 34.1093C12.8984 34.1003 13.0949 34.0087 13.2361 33.8547L15.684 31.194H32.3451L34.8317 33.8644C34.9064 33.9434 34.9964 34.0065 35.0962 34.0497C35.196 34.093 35.3035 34.1155 35.4123 34.1159C35.5651 34.117 35.7149 34.0733 35.8432 33.9902C35.9716 33.9072 36.0728 33.7884 36.1345 33.6486C36.1962 33.5087 36.2156 33.3539 36.1905 33.2032C36.1653 33.0524 36.0966 32.9123 35.9928 32.8001L34.5318 31.2036H36.9797C37.1901 31.2036 37.3919 31.12 37.5407 30.9712C37.6895 30.8225 37.7731 30.6207 37.7731 30.4102V14.349C37.7705 14.1402 37.6858 13.9409 37.5373 13.7942C37.3888 13.6475 37.1884 13.5652 36.9797 13.5652" fill="white"/>
</g>
<defs>
<clipPath id="clip0">
<rect width="48" height="48" fill="white"/>
</clipPath>
</defs>
</svg>
