<svg width="48" height="48" viewBox="0 0 48 48" fill="none" xmlns="http://www.w3.org/2000/svg">
<g clip-path="url(#clip0)">
<path d="M23.9952 47.9999C28.7433 48.0018 33.3853 46.5956 37.3342 43.9591C41.283 41.3226 44.3613 37.5742 46.1796 33.188C47.998 28.8019 48.4747 23.975 47.5496 19.3179C46.6245 14.6608 44.339 10.3826 40.9822 7.02452C37.6255 3.66642 33.3483 1.37922 28.6915 0.4522C24.0348 -0.474817 19.2077 -6.19702e-06 14.8208 1.81658C10.4339 3.63316 6.68433 6.70992 4.04622 10.6577C1.4081 14.6055 3.8569e-07 19.247 0 23.9951C-5.17013e-07 30.3599 2.52775 36.4641 7.02743 40.9656C11.5271 45.4672 17.6304 47.9974 23.9952 47.9999Z" fill="#F99F27"/>
<path d="M34.2706 21.0633C32.3705 19.1656 29.8714 17.9852 27.1987 17.7232C24.5261 17.4611 21.8452 18.1337 19.6127 19.6262C17.3803 21.1188 15.7342 23.3391 14.9549 25.909C14.1756 28.4789 14.3112 31.2395 15.3387 33.7206C16.3662 36.2017 18.222 38.25 20.59 39.5165C22.958 40.783 25.6919 41.1895 28.326 40.6668C30.9601 40.144 33.3315 38.7243 35.0364 36.6495C36.7413 34.5746 37.6743 31.9729 37.6764 29.2875C37.6776 27.76 37.3774 26.2473 36.793 24.836C36.2085 23.4248 35.3514 22.1427 34.2706 21.0633ZM20.9765 6.12439C20.7488 5.77957 20.4459 5.49078 20.0907 5.27965C19.7355 5.06852 19.3371 4.94053 18.9253 4.90528H18.8286C18.1486 4.96756 17.4982 5.2127 16.9463 5.61471C16.3944 6.01672 15.9616 6.56061 15.6937 7.18869C14.7276 9.25966 14.2762 11.5334 14.3779 13.8164C14.3779 14.1066 14.3779 14.3776 14.3779 14.6388C14.3335 15.3078 14.4706 15.9763 14.7746 16.5739C14.9737 16.8231 15.2352 17.0152 15.5326 17.1308C15.83 17.2463 16.1526 17.2812 16.4678 17.2318C16.7916 17.274 17.1208 17.2391 17.4285 17.1298C17.7362 17.0205 18.0137 16.8399 18.2384 16.6029C18.5579 16.057 18.6904 15.4217 18.6157 14.7936C18.4902 12.9942 18.6801 11.1867 19.1769 9.45275C19.5771 8.24541 20.1827 7.11618 20.9669 6.11471L20.9765 6.12439ZM28.7072 17.4253C31.6136 18.0745 34.1782 19.7732 35.9099 22.1959C37.6416 24.6186 38.4186 27.5951 38.0921 30.5551C37.7655 33.5151 36.3583 36.2506 34.1401 38.2375C31.9219 40.2244 29.0486 41.3231 26.0707 41.3231C23.0927 41.3231 20.2194 40.2244 18.0012 38.2375C15.783 36.2506 14.3758 33.5151 14.0493 30.5551C13.7227 27.5951 14.4997 24.6186 16.2314 22.1959C17.9631 19.7732 20.5278 18.0745 23.4341 17.4253C23.4341 17.2125 23.4341 17.0093 23.4341 16.8061C23.4341 16.6029 23.4341 16.2643 23.4341 15.9643C23.4891 13.2678 23.0192 10.5863 22.0505 8.06916C21.8396 7.545 21.5838 7.04001 21.2861 6.55978C20.5821 7.48251 20.0361 8.5157 19.6703 9.61723C19.1948 11.2956 19.0115 13.0434 19.1285 14.7839C19.227 15.5346 19.0556 16.2959 18.6447 16.9319C18.3729 17.2321 18.0341 17.4639 17.6558 17.6085C17.2776 17.7531 16.8705 17.8063 16.4678 17.764C16.066 17.8159 15.6577 17.761 15.2839 17.6047C14.9102 17.4484 14.5843 17.1963 14.3392 16.8738C13.9849 16.1945 13.818 15.4331 13.8554 14.6678C13.8554 14.3679 13.8554 14.0873 13.8554 13.8261C13.7532 11.4579 14.2281 9.10043 15.239 6.95648C15.7111 6.00803 16.4738 5.23514 17.416 4.75047C18.6866 4.29746 20.0373 4.11297 21.3829 4.20864C22.6718 4.13599 23.9607 4.35081 25.1563 4.83755C25.3699 4.99186 25.5706 5.16336 25.7562 5.35035C25.9578 5.56371 26.1452 5.78995 26.3174 6.02763C26.5824 6.40265 26.8185 6.79725 27.0237 7.20804C27.2567 7.69528 27.4603 8.19608 27.6333 8.70774C28.0168 9.8177 28.2954 10.9612 28.4653 12.1232C28.652 13.4048 28.7458 14.6982 28.7459 15.9934C28.7459 16.2643 28.7459 16.5449 28.7459 16.8448C28.7459 17.1447 28.7459 17.2705 28.7459 17.4737L28.7072 17.4253ZM26.0852 17.1738C26.8055 17.1744 27.5243 17.2392 28.2331 17.3673C28.2331 17.1834 28.2331 17.0093 28.2331 16.8351C28.2331 16.661 28.2331 16.2933 28.2331 15.9934C28.2369 14.7302 28.1431 13.4686 27.9525 12.2199C27.7921 11.0873 27.5231 9.97275 27.1495 8.89157C26.9855 8.42312 26.7949 7.9644 26.5786 7.51765C26.3917 7.12854 26.1716 6.75627 25.9207 6.40498C25.7613 6.19264 25.5867 5.99215 25.3982 5.8051C25.2377 5.63768 25.0592 5.48843 24.8661 5.36003C23.7459 4.90845 22.5406 4.70702 21.3345 4.76982C20.9475 4.76982 20.5605 4.76982 20.1831 4.76982C21.2882 5.52817 22.1222 6.61973 22.5633 7.88532C23.5625 10.466 24.0489 13.2168 23.9953 15.9837C23.9953 16.2546 23.9953 16.5352 23.9953 16.8351C23.9953 17.1351 23.9953 17.1834 23.9953 17.3479C24.6821 17.227 25.3781 17.1655 26.0755 17.1641" fill="white"/>
<path d="M34.2706 21.0633C32.3705 19.1656 29.8714 17.9852 27.1987 17.7232C24.5261 17.4611 21.8452 18.1337 19.6127 19.6262C17.3803 21.1188 15.7342 23.3391 14.9549 25.909C14.1756 28.4789 14.3112 31.2395 15.3387 33.7206C16.3662 36.2017 18.222 38.25 20.59 39.5165C22.958 40.783 25.6919 41.1895 28.326 40.6668C30.9601 40.144 33.3315 38.7243 35.0364 36.6495C36.7413 34.5746 37.6743 31.9729 37.6764 29.2875C37.6776 27.76 37.3774 26.2473 36.793 24.836C36.2085 23.4248 35.3514 22.1427 34.2706 21.0633V21.0633ZM20.9765 6.12439C20.7488 5.77957 20.4459 5.49078 20.0907 5.27965C19.7355 5.06852 19.3371 4.94053 18.9253 4.90528H18.8286C18.1486 4.96756 17.4982 5.2127 16.9463 5.61471C16.3944 6.01672 15.9616 6.56061 15.6937 7.18869C14.7276 9.25966 14.2762 11.5334 14.3779 13.8164C14.3779 14.1066 14.3779 14.3776 14.3779 14.6388C14.3335 15.3078 14.4706 15.9763 14.7746 16.5739C14.9737 16.8231 15.2352 17.0152 15.5326 17.1308C15.83 17.2463 16.1526 17.2812 16.4678 17.2318C16.7916 17.274 17.1208 17.2391 17.4285 17.1298C17.7362 17.0205 18.0137 16.8399 18.2384 16.6029C18.5579 16.057 18.6904 15.4217 18.6157 14.7936C18.4902 12.9942 18.6801 11.1867 19.1769 9.45275C19.5811 8.24815 20.1899 7.12222 20.9765 6.12439V6.12439ZM28.7169 17.435C31.6233 18.0842 34.1879 19.7829 35.9196 22.2056C37.6513 24.6283 38.4283 27.6047 38.1017 30.5647C37.7752 33.5248 36.368 36.2602 34.1498 38.2472C31.9316 40.2341 29.0583 41.3328 26.0803 41.3328C23.1024 41.3328 20.2291 40.2341 18.0109 38.2472C15.7927 36.2602 14.3855 33.5248 14.0589 30.5647C13.7324 27.6047 14.5094 24.6283 16.2411 22.2056C17.9728 19.7829 20.5374 18.0842 23.4438 17.435C23.4438 17.2221 23.4438 17.019 23.4438 16.8158C23.4438 16.6126 23.4438 16.274 23.4438 15.974C23.4988 13.2775 23.0288 10.596 22.0602 8.07883C21.8466 7.55102 21.5877 7.04276 21.2861 6.55978C20.5821 7.48251 20.0361 8.5157 19.6703 9.61723C19.1948 11.2956 19.0115 13.0434 19.1285 14.7839C19.227 15.5346 19.0556 16.2959 18.6447 16.9319C18.3729 17.2321 18.0341 17.4639 17.6558 17.6085C17.2776 17.7531 16.8705 17.8063 16.4678 17.764C16.066 17.8159 15.6577 17.761 15.2839 17.6047C14.9102 17.4484 14.5843 17.1963 14.3392 16.8738C13.9849 16.1945 13.818 15.4331 13.8554 14.6678C13.8554 14.3679 13.8554 14.0873 13.8554 13.8261C13.7532 11.4579 14.2281 9.10043 15.239 6.95648C15.7111 6.00802 16.4738 5.23514 17.416 4.75047C18.6866 4.29746 20.0373 4.11297 21.3829 4.20864C22.6718 4.13599 23.9607 4.35081 25.1563 4.83755C25.3699 4.99186 25.5706 5.16336 25.7562 5.35035C25.9578 5.56371 26.1452 5.78995 26.3174 6.02763C26.5824 6.40265 26.8185 6.79725 27.0237 7.20804C27.2567 7.69528 27.4603 8.19608 27.6333 8.70774C28.0168 9.8177 28.2954 10.9612 28.4653 12.1232C28.652 13.4048 28.7458 14.6982 28.7459 15.9934C28.7459 16.2643 28.7459 16.5449 28.7459 16.8448C28.7459 17.1447 28.7169 17.2318 28.7072 17.4157L28.7169 17.435ZM26.0562 17.1351C26.7765 17.1357 27.4953 17.2005 28.2041 17.3286C28.2041 17.1447 28.2041 16.9706 28.2041 16.7964C28.2041 16.6223 28.2041 16.2546 28.2041 15.9547C28.2079 14.6915 28.1141 13.4299 27.9235 12.1812C27.763 11.0486 27.4941 9.93405 27.1205 8.85287C26.9564 8.38442 26.7659 7.9257 26.5496 7.47895C26.3627 7.08984 26.1426 6.71756 25.8917 6.36627C25.7401 6.16822 25.5753 5.98072 25.3982 5.8051C25.2377 5.63768 25.0592 5.48843 24.8661 5.36003C23.7459 4.90845 22.5406 4.70702 21.3345 4.76982C20.9475 4.76982 20.5605 4.76982 20.1831 4.76982C21.2882 5.52817 22.1222 6.61973 22.5633 7.88532C23.5625 10.466 24.0489 13.2168 23.9953 15.9837C23.9953 16.2546 23.9953 16.5352 23.9953 16.8351C23.9953 17.1351 23.9953 17.1834 23.9953 17.3479C24.6717 17.2189 25.3579 17.1477 26.0465 17.1351H26.0562Z" stroke="white" stroke-miterlimit="10"/>
</g>
<defs>
<clipPath id="clip0">
<rect width="48" height="48" fill="white"/>
</clipPath>
</defs>
</svg>
